<svg enable-background="new -0.383 -0.6 129 129" height="129" viewBox="-.383 -.6 129 129" width="129" xmlns="http://www.w3.org/2000/svg"><pattern id="Unnamed_Pattern" height="69" overflow="visible" patternUnits="userSpaceOnUse" viewBox="2.125 -70.896 69 69" width="69" x="1231.617" y="981.4"><g><path d="m71.125-1.896h-69v-69h69z" fill="none"/><path d="m71.125-1.896h-69v-69h69z" fill="#f7c455"/><g><path d="m61.772-71.653c.018.072.008.127-.025.19-.054.101-.112.062-.166.128-.05.062-.099.276-.079.362-.168.058-.009.227-.015.35-.002.05-.04.105-.045.161-.01.119.018.266.068.37.097.198.268.413.435.544.19.148.365.572.608.631.178.042.384-.104.543-.143.181-.043.397.01.571-.053.222-.079.127-.337.288-.45.104-.074.287-.01.406-.051.199-.069.339-.263.376-.46.016-.082.01-.145.039-.221.038-.103.111-.16.09-.293-.01-.062-.052-.12-.064-.187-.021-.114.002-.224 0-.337-.002-.2.017-.379-.078-.55-.38-.688-1.235-.929-1.974-.789-.181.034-.287.126-.442.207-.17.088-.139.166-.318.224-.081.026-.216.124-.215.224.002.115.005.051.012.169-.021.011-.021-.005-.03-.025" fill="#fff"/><path d="m54.105-71.653c.018.072.008.127-.025.19-.053.101-.112.062-.165.128-.051.062-.1.276-.08.362-.169.058-.009.227-.015.35-.002.05-.04.105-.045.161-.01.119.018.266.068.37.097.198.268.413.435.544.19.148.365.572.608.631.178.042.384-.104.543-.143.181-.043.397.01.571-.053.222-.079.127-.337.288-.45.104-.074.287-.01.406-.051.199-.069.339-.263.376-.46.016-.082.01-.145.039-.221.038-.103.111-.16.09-.293-.01-.062-.052-.12-.064-.187-.021-.114.002-.224 0-.337-.003-.2.017-.379-.078-.55-.38-.688-1.235-.929-1.974-.789-.181.034-.287.126-.442.207-.17.088-.139.166-.318.224-.081.026-.216.124-.215.224.002.115.005.051.012.169-.021.011-.021-.005-.03-.025" fill="#fff"/><path d="m46.439-71.653c.017.072.007.127-.026.19-.053.101-.112.062-.165.128-.05.062-.1.276-.079.362-.169.058-.01.227-.016.35-.002.05-.04.105-.044.161-.011.119.017.266.067.37.097.198.268.413.435.544.19.148.365.572.608.631.178.042.384-.104.544-.143.18-.043.396.01.571-.053.222-.079.127-.337.288-.45.104-.074.287-.01.405-.051.2-.069.34-.263.377-.46.015-.082.01-.145.038-.221.038-.103.111-.16.091-.293-.011-.062-.053-.12-.065-.187-.021-.114.003-.224.001-.337-.003-.2.017-.379-.078-.55-.38-.688-1.236-.929-1.975-.789-.18.034-.286.126-.442.207-.17.088-.139.166-.318.224-.08.026-.216.124-.214.224.001.115.005.051.011.169-.021.011-.021-.005-.03-.025" fill="#fff"/><path d="m38.772-71.653c.018.072.008.127-.025.19-.054.101-.112.062-.166.128-.05.062-.099.276-.079.362-.168.058-.009.227-.015.35-.002.05-.04.105-.045.161-.01.119.018.266.068.37.097.198.268.413.435.544.19.148.365.572.608.631.178.042.384-.104.543-.143.181-.043.397.01.571-.053.222-.079.127-.337.288-.45.104-.074.287-.01.406-.051.199-.069.339-.263.376-.46.016-.082.01-.145.039-.221.038-.103.111-.16.09-.293-.01-.062-.052-.12-.064-.187-.021-.114.002-.224 0-.337-.002-.2.017-.379-.078-.55-.38-.688-1.235-.929-1.974-.789-.181.034-.287.126-.442.207-.17.088-.139.166-.318.224-.081.026-.216.124-.215.224.002.115.005.051.012.169-.021.011-.021-.005-.03-.025" fill="#fff"/><path d="m31.105-71.653c.018.072.008.127-.025.19-.053.101-.112.062-.165.128-.051.062-.1.276-.08.362-.169.058-.009.227-.015.35-.002.05-.04.105-.045.161-.01.119.018.266.068.37.097.198.268.413.435.544.19.148.365.572.608.631.178.042.384-.104.543-.143.181-.043.397.01.571-.053.222-.079.127-.337.288-.45.104-.074.287-.01.406-.051.199-.069.339-.263.376-.46.016-.082.01-.145.039-.221.038-.103.111-.16.09-.293-.01-.062-.052-.12-.064-.187-.021-.114.002-.224 0-.337-.003-.2.017-.379-.078-.55-.38-.688-1.235-.929-1.974-.789-.181.034-.287.126-.442.207-.17.088-.139.166-.318.224-.081.026-.216.124-.215.224.002.115.005.051.012.169-.021.011-.021-.005-.03-.025" fill="#fff"/><path d="m23.439-71.653c.017.072.007.127-.026.19-.053.101-.112.062-.165.128-.05.062-.1.276-.079.362-.169.058-.01.227-.016.35-.002.05-.04.105-.044.161-.011.119.017.266.067.37.097.198.268.413.435.544.19.148.365.572.608.631.178.042.384-.104.544-.143.18-.043.396.01.571-.053.222-.079.127-.337.288-.45.104-.074.287-.01.405-.051.2-.069.34-.263.377-.46.015-.082.01-.145.038-.221.038-.103.111-.16.091-.293-.011-.062-.053-.12-.065-.187-.021-.114.003-.224.001-.337-.003-.2.017-.379-.078-.55-.38-.688-1.236-.929-1.975-.789-.18.034-.286.126-.441.207-.171.088-.14.166-.319.224-.08.026-.216.124-.214.224.001.115.005.051.011.169-.021.011-.021-.005-.03-.025" fill="#fff"/><path d="m15.772-71.653c.018.072.008.127-.025.19-.054.101-.112.062-.166.128-.05.062-.099.276-.079.362-.168.058-.009.227-.015.35-.002.05-.04.105-.045.161-.01.119.018.266.068.37.097.198.268.413.435.544.19.148.365.572.608.631.178.042.384-.104.543-.143.181-.043.397.01.571-.053.222-.079.127-.337.288-.45.104-.074.287-.01.406-.051.199-.069.339-.263.376-.46.016-.082.01-.145.039-.221.038-.103.111-.16.09-.293-.01-.062-.052-.12-.064-.187-.021-.114.002-.224 0-.337-.002-.2.017-.379-.077-.55-.381-.688-1.236-.929-1.975-.789-.181.034-.287.126-.442.207-.17.088-.139.166-.318.224-.081.026-.216.124-.215.224.002.115.005.051.012.169-.021.011-.021-.005-.03-.025" fill="#fff"/><path d="m8.105-71.653c.018.072.007.127-.025.19-.053.101-.112.062-.166.128-.05.062-.099.276-.078.362-.17.058-.011.227-.016.35-.003.05-.04.105-.045.161-.01.119.017.266.067.37.098.198.269.413.436.544.189.148.365.572.608.631.177.042.384-.104.543-.143.18-.043.397.01.571-.053.222-.079.127-.337.288-.45.104-.074.287-.01.406-.051.199-.069.339-.263.376-.46.016-.082.01-.145.039-.221.038-.103.111-.16.09-.293-.01-.062-.052-.12-.064-.187-.021-.114.002-.224 0-.337-.003-.2.017-.379-.078-.55-.38-.688-1.235-.929-1.974-.789-.18.034-.287.126-.442.207-.171.088-.139.166-.318.224-.081.026-.216.124-.215.224.001.115.005.051.012.169-.021.011-.021-.005-.03-.025" fill="#fff"/><path d="m.439-71.653c.018.072.007.127-.026.19-.052.101-.112.062-.165.128-.051.062-.099.276-.079.362-.169.058-.011.227-.015.35-.003.05-.041.105-.045.161-.011.119.017.266.067.37.098.198.268.413.435.544.19.148.365.572.608.631.178.042.384-.104.543-.143.181-.043.397.01.571-.053.222-.079.128-.337.289-.45.104-.074.287-.01.406-.051.199-.07.339-.263.376-.46.015-.082.009-.145.038-.221.038-.103.111-.16.09-.293-.009-.062-.051-.12-.063-.187-.022-.114.001-.224 0-.337-.003-.2.017-.379-.078-.55-.38-.688-1.236-.929-1.975-.789-.18.034-.287.126-.441.207-.171.088-.139.166-.319.224-.08.026-.215.124-.214.224.002.115.004.051.011.169-.021.011-.021-.005-.029-.025" fill="#fff"/></g><g><path d="m69.439-71.653c.017.072.008.127-.026.19-.053.101-.112.062-.165.128-.051.062-.1.276-.079.362-.169.058-.01.227-.016.35-.002.05-.04.105-.044.161-.011.119.017.266.067.37.097.198.268.413.435.544.19.148.365.572.608.631.178.042.384-.104.544-.143.18-.043.396.01.571-.053.222-.079.127-.337.288-.45.104-.074.287-.01.405-.051.2-.07.34-.263.377-.46.015-.082.01-.145.038-.221.038-.103.111-.16.091-.293-.011-.062-.052-.12-.065-.187-.021-.114.003-.224.001-.337-.003-.2.017-.379-.078-.55-.38-.688-1.236-.929-1.975-.789-.18.034-.286.126-.442.207-.17.088-.139.166-.318.224-.08.026-.215.124-.215.224.002.115.006.051.012.169-.021.011-.021-.005-.03-.025" fill="#fff"/></g><path d="m.495-71.653c.018.072.008.127-.026.19-.052.101-.112.062-.165.128-.05.062-.099.276-.078.362-.17.058-.011.227-.016.35-.002.05-.04.105-.045.161-.011.119.018.266.067.37.098.198.269.413.436.544.189.148.364.572.608.631.177.042.384-.104.543-.143.18-.043.397.01.571-.053.222-.079.128-.337.288-.45.104-.074.287-.01.406-.051.2-.07.34-.263.376-.46.016-.082.01-.145.038-.221.039-.103.112-.16.091-.293-.01-.062-.052-.12-.064-.187-.021-.114.002-.224.001-.337-.003-.2.016-.379-.079-.55-.38-.688-1.235-.929-1.975-.789-.179.034-.286.126-.441.207-.17.088-.139.166-.318.224-.081.026-.215.124-.215.224.002.116.005.052.012.17-.021.011-.021-.005-.03-.025" fill="#fff"/><g><g><path d="m69.439-64.001c.017.072.007.127-.026.19-.053.101-.112.062-.165.128-.05.062-.1.276-.079.362-.169.058-.01.227-.016.35-.002.05-.04.105-.044.161-.011.119.017.266.067.37.097.198.268.413.435.544.19.148.365.572.608.631.178.042.384-.104.544-.143.18-.043.396.01.571-.053.222-.079.127-.337.288-.45.104-.074.287-.01.405-.051.2-.069.34-.263.377-.46.015-.082.01-.145.038-.221.038-.103.111-.16.091-.293-.011-.062-.053-.12-.065-.187-.021-.114.003-.224.001-.337-.003-.2.017-.379-.078-.55-.38-.688-1.236-.929-1.975-.789-.18.034-.286.126-.442.207-.17.088-.139.166-.318.224-.08.026-.216.124-.215.224.002.115.006.051.012.169-.021.011-.021-.005-.03-.025" fill="#fff"/><path d="m61.778-64.001c.018.072.007.127-.026.19-.053.101-.112.062-.165.128-.05.062-.099.276-.079.362-.168.058-.009.227-.015.35-.003.05-.041.105-.045.161-.01.119.017.266.067.37.098.198.269.413.436.544.189.148.364.572.608.631.177.042.384-.104.543-.143.18-.043.397.01.571-.053.222-.079.128-.337.288-.45.104-.074.287-.01.406-.051.2-.069.339-.263.376-.46.016-.082.01-.145.038-.221.039-.103.111-.16.091-.293-.01-.062-.052-.12-.064-.187-.022-.114.002-.224.001-.337-.003-.2.017-.379-.078-.55-.38-.688-1.237-.929-1.976-.789-.179.034-.286.126-.441.207-.171.088-.139.166-.318.224-.081.026-.216.124-.215.224.001.115.005.051.012.169-.021.011-.021-.005-.03-.025" fill="#fff"/><path d="m54.118-64.001c.018.072.008.127-.025.19-.053.101-.112.062-.166.128-.05.062-.099.276-.079.362-.168.058-.009.227-.015.35-.002.05-.04.105-.045.161-.01.119.018.266.068.37.097.198.268.413.435.544.19.148.365.572.608.631.178.042.384-.104.543-.143.181-.043.397.01.571-.053.222-.079.127-.337.288-.45.104-.074.287-.01.406-.051.199-.069.339-.263.376-.46.016-.082.01-.145.039-.221.038-.103.111-.16.09-.293-.01-.062-.052-.12-.064-.187-.021-.114.002-.224 0-.337-.002-.2.017-.379-.078-.55-.38-.688-1.235-.929-1.974-.789-.181.034-.287.126-.442.207-.17.088-.139.166-.318.224-.081.026-.216.124-.215.224.002.115.005.051.012.169-.021.011-.021-.005-.03-.025" fill="#fff"/><path d="m46.457-64.001c.018.072.008.127-.025.19-.053.101-.112.062-.165.128-.051.062-.099.276-.079.362-.169.058-.01.227-.015.35-.003.05-.041.105-.046.161-.009.119.018.266.068.37.098.198.269.413.436.544.189.148.364.572.608.631.177.042.384-.104.542-.143.181-.043.398.01.571-.053.222-.079.128-.337.288-.45.104-.074.287-.01.407-.051.199-.069.338-.263.375-.46.017-.082.01-.145.039-.221.039-.103.111-.16.09-.293-.009-.062-.051-.12-.063-.187-.022-.114.001-.224 0-.337-.003-.2.017-.379-.078-.55-.38-.688-1.236-.929-1.975-.789-.18.034-.287.126-.441.207-.171.088-.139.166-.318.224-.082.026-.216.124-.216.224.002.115.005.051.013.169-.021.011-.021-.005-.03-.025" fill="#fff"/><path d="m38.798-64.001c.017.072.007.127-.026.19-.053.101-.112.062-.165.128-.05.062-.1.276-.079.362-.169.058-.009.227-.016.35-.002.05-.04.105-.044.161-.011.119.017.266.067.37.097.198.268.413.435.544.19.148.365.572.608.631.178.042.384-.104.544-.143.18-.043.396.01.571-.053.222-.079.127-.337.288-.45.104-.074.287-.01.405-.051.2-.069.34-.263.377-.46.015-.082.009-.145.038-.221.038-.103.111-.16.091-.293-.011-.062-.053-.12-.065-.187-.021-.114.003-.224.001-.337-.003-.2.017-.379-.078-.55-.38-.688-1.236-.929-1.975-.789-.18.034-.286.126-.441.207-.171.088-.14.166-.319.224-.08.026-.216.124-.214.224.001.115.005.051.011.169-.021.011-.021-.005-.03-.025" fill="#fff"/><path d="m31.137-64.001c.018.072.007.127-.026.19-.053.101-.112.062-.165.128-.05.062-.099.276-.078.362-.169.058-.01.227-.016.35-.003.05-.041.105-.045.161-.01.119.017.266.067.37.098.198.269.413.436.544.189.148.364.572.608.631.177.042.384-.104.543-.143.18-.043.397.01.571-.053.222-.079.128-.337.288-.45.104-.074.287-.01.406-.051.2-.069.339-.263.376-.46.016-.082.01-.145.038-.221.039-.103.111-.16.091-.293-.01-.062-.052-.12-.064-.187-.022-.114.002-.224.001-.337-.003-.2.017-.379-.078-.55-.38-.688-1.237-.929-1.976-.789-.179.034-.286.126-.441.207-.171.088-.139.166-.318.224-.081.026-.216.124-.215.224.001.115.005.051.012.169-.021.011-.021-.005-.03-.025" fill="#fff"/><path d="m23.477-64.001c.018.072.008.127-.025.19-.054.101-.112.062-.166.128-.05.062-.099.276-.079.362-.168.058-.009.227-.015.35-.002.05-.04.105-.045.161-.01.119.018.266.068.37.097.198.268.413.435.544.19.148.365.572.608.631.178.042.384-.104.543-.143.181-.043.397.01.571-.053.222-.079.127-.337.288-.45.104-.074.287-.01.406-.051.199-.069.339-.263.376-.46.016-.082.01-.145.039-.221.038-.103.111-.16.09-.293-.01-.062-.052-.12-.064-.187-.021-.114.002-.224 0-.337-.002-.2.017-.379-.077-.55-.381-.688-1.236-.929-1.975-.789-.181.034-.287.126-.442.207-.17.088-.139.166-.318.224-.081.026-.216.124-.215.224.002.115.005.051.012.169-.021.011-.021-.005-.03-.025" fill="#fff"/><path d="m15.815-64.001c.019.072.008.127-.025.19-.053.101-.112.062-.165.128-.051.062-.099.276-.079.362-.169.058-.01.227-.015.35-.003.05-.041.105-.046.161-.009.119.018.266.068.37.098.198.269.413.436.544.189.148.364.572.608.631.177.042.384-.104.542-.143.181-.043.398.01.571-.053.222-.079.128-.337.288-.45.104-.074.287-.01.407-.051.199-.069.338-.263.375-.46.017-.082.01-.145.039-.221.039-.103.111-.16.09-.293-.009-.062-.051-.12-.063-.187-.022-.114.001-.224 0-.337-.003-.2.017-.379-.078-.55-.38-.688-1.236-.929-1.975-.789-.18.034-.287.126-.441.207-.171.088-.139.166-.318.224-.082.026-.216.124-.216.224.002.115.005.051.013.169-.021.011-.021-.005-.03-.025" fill="#fff"/><path d="m8.155-64.001c.019.072.008.127-.025.19-.053.101-.112.062-.165.128-.051.062-.1.276-.079.362-.169.058-.01.227-.015.35-.003.05-.041.105-.046.161-.009.119.018.266.068.37.097.198.268.413.435.544.19.148.365.572.608.631.178.042.384-.104.543-.143.181-.043.397.01.572-.053.221-.079.127-.337.288-.45.104-.074.287-.01.405-.051.2-.069.34-.263.377-.46.015-.082.009-.145.038-.221.038-.103.111-.16.091-.293-.011-.062-.053-.12-.065-.187-.021-.114.003-.224.001-.337-.003-.2.017-.379-.078-.55-.38-.688-1.236-.929-1.975-.789-.18.034-.286.126-.442.207-.17.088-.139.166-.317.224-.082.026-.217.124-.216.224.002.115.005.051.012.169-.021.011-.021-.005-.029-.025" fill="#fff"/><path d="m.495-64.001c.018.072.007.127-.026.19-.052.101-.111.062-.165.128-.05.062-.099.276-.078.362-.17.058-.011.227-.016.35-.002.05-.04.105-.045.161-.01.119.018.266.067.37.098.198.269.413.436.544.189.148.364.572.608.631.177.042.384-.104.543-.143.18-.043.397.01.571-.053.222-.079.128-.337.288-.45.104-.074.287-.01.406-.051.2-.069.339-.263.376-.46.016-.082.01-.145.038-.221.039-.103.112-.16.091-.293-.01-.062-.052-.12-.064-.187-.021-.114.002-.224.001-.337-.003-.2.016-.379-.079-.55-.38-.688-1.235-.929-1.975-.789-.179.034-.286.126-.441.207-.17.088-.139.166-.318.224-.081.026-.216.124-.215.224.002.115.005.051.012.169-.021.011-.021-.005-.03-.025" fill="#fff"/></g><g><path d="m69.439-56.348c.017.072.007.127-.026.19-.053.101-.112.062-.165.128-.05.062-.1.276-.079.362-.169.058-.01.227-.016.35-.002.05-.04.105-.044.161-.011.119.017.266.067.37.097.198.268.413.435.544.19.148.365.572.608.631.178.042.384-.104.544-.143.18-.043.396.01.571-.053.222-.079.127-.337.288-.45.104-.074.287-.01.405-.051.2-.069.34-.263.377-.46.015-.082.01-.145.038-.221.038-.103.111-.16.091-.293-.011-.062-.053-.12-.065-.187-.021-.114.003-.224.001-.337-.003-.2.017-.379-.078-.55-.38-.688-1.236-.929-1.975-.789-.18.034-.286.126-.442.207-.17.088-.139.166-.318.224-.08.026-.216.124-.215.224.002.115.006.051.012.169-.021.011-.021-.005-.03-.025" fill="#fff"/><path d="m61.778-56.348c.018.072.007.127-.026.19-.053.101-.112.062-.165.128-.05.062-.099.276-.079.362-.168.058-.009.227-.015.35-.003.05-.041.105-.045.161-.01.119.017.266.067.37.098.198.269.413.436.544.189.148.364.572.608.631.177.042.384-.104.543-.143.18-.043.397.01.571-.053.222-.079.128-.337.288-.45.104-.074.287-.01.406-.051.2-.069.339-.263.376-.46.016-.082.01-.145.038-.221.039-.103.111-.16.091-.293-.01-.062-.052-.12-.064-.187-.022-.114.002-.224.001-.337-.003-.2.017-.379-.078-.55-.38-.688-1.237-.929-1.976-.789-.179.034-.286.126-.441.207-.171.088-.139.166-.318.224-.081.026-.216.124-.215.224.001.115.005.051.012.169-.021.011-.021-.005-.03-.025" fill="#fff"/><path d="m54.118-56.348c.018.072.008.127-.025.19-.053.101-.112.062-.166.128-.05.062-.099.276-.079.362-.168.058-.009.227-.015.35-.002.05-.04.105-.045.161-.01.119.018.266.068.37.097.198.268.413.435.544.19.148.365.572.608.631.178.042.384-.104.543-.143.181-.043.397.01.571-.053.222-.079.127-.337.288-.45.104-.074.287-.01.406-.051.199-.069.339-.263.376-.46.016-.082.01-.145.039-.221.038-.103.111-.16.09-.293-.01-.062-.052-.12-.064-.187-.021-.114.002-.224 0-.337-.002-.2.017-.379-.078-.55-.38-.688-1.235-.929-1.974-.789-.181.034-.287.126-.442.207-.17.088-.139.166-.318.224-.081.026-.216.124-.215.224.002.115.005.051.012.169-.021.011-.021-.005-.03-.025" fill="#fff"/><path d="m46.457-56.348c.018.072.008.127-.025.19-.053.101-.112.062-.165.128-.051.062-.099.276-.079.362-.169.058-.01.227-.015.35-.003.05-.041.105-.046.161-.009.119.018.266.068.37.098.198.269.413.436.544.189.148.364.572.608.631.177.042.384-.104.542-.143.181-.043.398.01.571-.053.222-.079.128-.337.288-.45.104-.074.287-.01.407-.051.199-.069.338-.263.375-.46.017-.082.01-.145.039-.221.039-.103.111-.16.09-.293-.009-.062-.051-.12-.063-.187-.022-.114.001-.224 0-.337-.003-.2.017-.379-.078-.55-.38-.688-1.236-.929-1.975-.789-.18.034-.287.126-.441.207-.171.088-.139.166-.318.224-.082.026-.216.124-.216.224.002.115.005.051.013.169-.021.011-.021-.005-.03-.025" fill="#fff"/><path d="m38.798-56.348c.017.072.007.127-.026.19-.053.101-.112.062-.165.128-.05.062-.1.276-.079.362-.169.058-.009.227-.016.35-.002.05-.04.105-.044.161-.011.119.017.266.067.37.097.198.268.413.435.544.19.148.365.572.608.631.178.042.384-.104.544-.143.18-.043.396.01.571-.053.222-.079.127-.337.288-.45.104-.074.287-.01.405-.051.2-.069.34-.263.377-.46.015-.082.009-.145.038-.221.038-.103.111-.16.091-.293-.011-.062-.053-.12-.065-.187-.021-.114.003-.224.001-.337-.003-.2.017-.379-.078-.55-.38-.688-1.236-.929-1.975-.789-.18.034-.286.126-.441.207-.171.088-.14.166-.319.224-.08.026-.216.124-.214.224.001.115.005.051.011.169-.021.011-.021-.005-.03-.025" fill="#fff"/><path d="m31.137-56.348c.018.072.007.127-.026.19-.053.101-.112.062-.165.128-.05.062-.099.276-.078.362-.169.058-.01.227-.016.35-.003.05-.041.105-.045.161-.01.119.017.266.067.37.098.198.269.413.436.544.189.148.364.572.608.631.177.042.384-.104.543-.143.18-.043.397.01.571-.053.222-.079.128-.337.288-.45.104-.074.287-.01.406-.051.2-.069.339-.263.376-.46.016-.082.01-.145.038-.221.039-.103.111-.16.091-.293-.01-.062-.052-.12-.064-.187-.022-.114.002-.224.001-.337-.003-.2.017-.379-.078-.55-.38-.688-1.237-.929-1.976-.789-.179.034-.286.126-.441.207-.171.088-.139.166-.318.224-.081.026-.216.124-.215.224.001.115.005.051.012.169-.021.011-.021-.005-.03-.025" fill="#fff"/><path d="m23.477-56.348c.018.072.008.127-.025.19-.054.101-.112.062-.166.128-.05.062-.099.276-.079.362-.168.058-.009.227-.015.35-.002.05-.04.105-.045.161-.01.119.018.266.068.37.097.198.268.413.435.544.19.148.365.572.608.631.178.042.384-.104.543-.143.181-.043.397.01.571-.053.222-.079.127-.337.288-.45.104-.074.287-.01.406-.051.199-.069.339-.263.376-.46.016-.082.01-.145.039-.221.038-.103.111-.16.09-.293-.01-.062-.052-.12-.064-.187-.021-.114.002-.224 0-.337-.002-.2.017-.379-.077-.55-.381-.688-1.236-.929-1.975-.789-.181.034-.287.126-.442.207-.17.088-.139.166-.318.224-.081.026-.216.124-.215.224.002.115.005.051.012.169-.021.011-.021-.005-.03-.025" fill="#fff"/><path d="m15.815-56.348c.019.072.008.127-.025.19-.053.101-.112.062-.165.128-.051.062-.099.276-.079.362-.169.058-.01.227-.015.35-.003.05-.041.105-.046.161-.009.119.018.266.068.37.098.198.269.413.436.544.189.148.364.572.608.631.177.042.384-.104.542-.143.181-.043.398.01.571-.053.222-.079.128-.337.288-.45.104-.074.287-.01.407-.051.199-.069.338-.263.375-.46.017-.082.01-.145.039-.221.039-.103.111-.16.09-.293-.009-.062-.051-.12-.063-.187-.022-.114.001-.224 0-.337-.003-.2.017-.379-.078-.55-.38-.688-1.236-.929-1.975-.789-.18.034-.287.126-.441.207-.171.088-.139.166-.318.224-.082.026-.216.124-.216.224.002.115.005.051.013.169-.021.011-.021-.005-.03-.025" fill="#fff"/><path d="m8.155-56.348c.019.072.008.127-.025.19-.053.101-.112.062-.165.128-.051.062-.1.276-.079.362-.169.058-.01.227-.015.35-.003.05-.041.105-.046.161-.009.119.018.266.068.37.097.198.268.413.435.544.19.148.365.572.608.631.178.042.384-.104.543-.143.181-.043.397.01.572-.053.221-.079.127-.337.288-.45.104-.074.287-.01.405-.051.2-.069.34-.263.377-.46.015-.082.009-.145.038-.221.038-.103.111-.16.091-.293-.011-.062-.053-.12-.065-.187-.021-.114.003-.224.001-.337-.003-.2.017-.379-.078-.55-.38-.688-1.236-.929-1.975-.789-.18.034-.286.126-.442.207-.17.088-.139.166-.317.224-.082.026-.217.124-.216.224.002.115.005.051.012.169-.021.011-.021-.005-.029-.025" fill="#fff"/><path d="m.495-56.348c.018.072.007.127-.026.19-.052.101-.111.062-.165.128-.05.062-.099.276-.078.362-.17.058-.011.227-.016.35-.002.05-.04.105-.045.161-.01.119.018.266.067.37.098.198.269.413.436.544.189.148.364.572.608.631.177.042.384-.104.543-.143.18-.043.397.01.571-.053.222-.079.128-.337.288-.45.104-.074.287-.01.406-.051.2-.069.339-.263.376-.46.016-.082.01-.145.038-.221.039-.103.112-.16.091-.293-.01-.062-.052-.12-.064-.187-.021-.114.002-.224.001-.337-.003-.2.016-.379-.079-.55-.38-.688-1.235-.929-1.975-.789-.179.034-.286.126-.441.207-.17.088-.139.166-.318.224-.081.026-.216.124-.215.224.002.117.005.053.012.171-.021.011-.021-.005-.03-.025" fill="#fff"/></g><g><path d="m69.439-48.695c.017.072.007.127-.026.19-.053.101-.112.062-.165.128-.05.062-.1.276-.079.362-.169.058-.01.227-.016.35-.002.05-.04.105-.044.161-.011.119.017.266.067.37.097.198.268.413.435.544.19.148.365.572.608.631.178.042.384-.104.544-.143.18-.043.396.01.571-.053.222-.079.127-.337.288-.45.104-.074.287-.01.405-.051.2-.069.34-.263.377-.46.015-.082.01-.145.038-.221.038-.103.111-.16.091-.293-.011-.062-.053-.12-.065-.187-.021-.114.003-.224.001-.337-.003-.2.017-.379-.078-.55-.38-.688-1.236-.929-1.975-.789-.18.034-.286.126-.442.207-.17.088-.139.166-.318.224-.08.026-.216.124-.215.224.002.115.006.051.012.169-.021.011-.021-.005-.03-.025" fill="#fff"/><path d="m61.778-48.695c.018.072.007.127-.026.19-.053.101-.112.062-.165.128-.05.062-.099.276-.079.362-.168.058-.009.227-.015.35-.003.05-.041.105-.045.161-.01.119.017.266.067.37.098.198.269.413.436.544.189.148.364.572.608.631.177.042.384-.104.543-.143.18-.043.397.01.571-.053.222-.079.128-.337.288-.45.104-.074.287-.01.406-.051.2-.069.339-.263.376-.46.016-.082.01-.145.038-.221.039-.103.111-.16.091-.293-.01-.062-.052-.12-.064-.187-.022-.114.002-.224.001-.337-.003-.2.017-.379-.078-.55-.38-.688-1.237-.929-1.976-.789-.179.034-.286.126-.441.207-.171.088-.139.166-.318.224-.081.026-.216.124-.215.224.001.115.005.051.012.169-.021.011-.021-.005-.03-.025" fill="#fff"/><path d="m54.118-48.695c.018.072.008.127-.025.19-.053.101-.112.062-.166.128-.05.062-.099.276-.079.362-.168.058-.009.227-.015.35-.002.05-.04.105-.045.161-.01.119.018.266.068.37.097.198.268.413.435.544.19.148.365.572.608.631.178.042.384-.104.543-.143.181-.043.397.01.571-.053.222-.079.127-.337.288-.45.104-.074.287-.01.406-.051.199-.069.339-.263.376-.46.016-.082.01-.145.039-.221.038-.103.111-.16.09-.293-.01-.062-.052-.12-.064-.187-.021-.114.002-.224 0-.337-.002-.2.017-.379-.078-.55-.38-.688-1.235-.929-1.974-.789-.181.034-.287.126-.442.207-.17.088-.139.166-.318.224-.081.026-.216.124-.215.224.002.115.005.051.012.169-.021.011-.021-.005-.03-.025" fill="#fff"/><path d="m46.457-48.695c.018.072.008.127-.025.19-.053.101-.112.062-.165.128-.051.062-.099.276-.079.362-.169.058-.01.227-.015.35-.003.05-.041.105-.046.161-.009.119.018.266.068.37.098.198.269.413.436.544.189.148.364.572.608.631.177.042.384-.104.542-.143.181-.043.398.01.571-.053.222-.079.128-.337.288-.45.104-.074.287-.01.407-.051.199-.069.338-.263.375-.46.017-.082.01-.145.039-.221.039-.103.111-.16.09-.293-.009-.062-.051-.12-.063-.187-.022-.114.001-.224 0-.337-.003-.2.017-.379-.078-.55-.38-.688-1.236-.929-1.975-.789-.18.034-.287.126-.441.207-.171.088-.139.166-.318.224-.082.026-.216.124-.216.224.002.115.005.051.013.169-.021.011-.021-.005-.03-.025" fill="#fff"/><path d="m38.798-48.695c.017.072.007.127-.026.19-.053.101-.112.062-.165.128-.05.062-.1.276-.079.362-.169.058-.009.227-.016.35-.002.05-.04.105-.044.161-.011.119.017.266.067.37.097.198.268.413.435.544.19.148.365.572.608.631.178.042.384-.104.544-.143.18-.043.396.01.571-.053.222-.079.127-.337.288-.45.104-.074.287-.01.405-.051.2-.069.34-.263.377-.46.015-.082.009-.145.038-.221.038-.103.111-.16.091-.293-.011-.062-.053-.12-.065-.187-.021-.114.003-.224.001-.337-.003-.2.017-.379-.078-.55-.38-.688-1.236-.929-1.975-.789-.18.034-.286.126-.441.207-.171.088-.14.166-.319.224-.08.026-.216.124-.214.224.001.115.005.051.011.169-.021.011-.021-.005-.03-.025" fill="#fff"/><path d="m31.137-48.695c.018.072.007.127-.026.19-.053.101-.112.062-.165.128-.05.062-.099.276-.078.362-.169.058-.01.227-.016.35-.003.05-.041.105-.045.161-.01.119.017.266.067.37.098.198.269.413.436.544.189.148.364.572.608.631.177.042.384-.104.543-.143.18-.043.397.01.571-.053.222-.079.128-.337.288-.45.104-.074.287-.01.406-.051.2-.069.339-.263.376-.46.016-.082.01-.145.038-.221.039-.103.111-.16.091-.293-.01-.062-.052-.12-.064-.187-.022-.114.002-.224.001-.337-.003-.2.017-.379-.078-.55-.38-.688-1.237-.929-1.976-.789-.179.034-.286.126-.441.207-.171.088-.139.166-.318.224-.081.026-.216.124-.215.224.001.115.005.051.012.169-.021.011-.021-.005-.03-.025" fill="#fff"/><path d="m23.477-48.695c.018.072.008.127-.025.19-.054.101-.112.062-.166.128-.05.062-.099.276-.079.362-.168.058-.009.227-.015.35-.002.05-.04.105-.045.161-.01.119.018.266.068.37.097.198.268.413.435.544.19.148.365.572.608.631.178.042.384-.104.543-.143.181-.043.397.01.571-.053.222-.079.127-.337.288-.45.104-.074.287-.01.406-.051.199-.069.339-.263.376-.46.016-.082.01-.145.039-.221.038-.103.111-.16.09-.293-.01-.062-.052-.12-.064-.187-.021-.114.002-.224 0-.337-.002-.2.017-.379-.077-.55-.381-.688-1.236-.929-1.975-.789-.181.034-.287.126-.442.207-.17.088-.139.166-.318.224-.081.026-.216.124-.215.224.002.115.005.051.012.169-.021.011-.021-.005-.03-.025" fill="#fff"/><path d="m15.815-48.695c.019.072.008.127-.025.19-.053.101-.112.062-.165.128-.051.062-.099.276-.079.362-.169.058-.01.227-.015.35-.003.05-.041.105-.046.161-.009.119.018.266.068.37.098.198.269.413.436.544.189.148.364.572.608.631.177.042.384-.104.542-.143.181-.043.398.01.571-.053.222-.079.128-.337.288-.45.104-.074.287-.01.407-.051.199-.069.338-.263.375-.46.017-.082.01-.145.039-.221.039-.103.111-.16.09-.293-.009-.062-.051-.12-.063-.187-.022-.114.001-.224 0-.337-.003-.2.017-.379-.078-.55-.38-.688-1.236-.929-1.975-.789-.18.034-.287.126-.441.207-.171.088-.139.166-.318.224-.082.026-.216.124-.216.224.002.115.005.051.013.169-.021.011-.021-.005-.03-.025" fill="#fff"/><path d="m8.155-48.695c.019.072.008.127-.025.19-.053.101-.112.062-.165.128-.051.062-.1.276-.079.362-.169.058-.01.227-.015.35-.003.05-.041.105-.046.161-.009.119.018.266.068.37.097.198.268.413.435.544.19.148.365.572.608.631.178.042.384-.104.543-.143.181-.043.397.01.572-.053.221-.079.127-.337.288-.45.104-.074.287-.01.405-.051.2-.069.34-.263.377-.46.015-.082.009-.145.038-.221.038-.103.111-.16.091-.293-.011-.062-.053-.12-.065-.187-.021-.114.003-.224.001-.337-.003-.2.017-.379-.078-.55-.38-.688-1.236-.929-1.975-.789-.18.034-.286.126-.442.207-.17.088-.139.166-.317.224-.082.026-.217.124-.216.224.002.115.005.051.012.169-.021.011-.021-.005-.029-.025" fill="#fff"/><path d="m.495-48.695c.018.072.007.127-.026.19-.052.101-.111.062-.165.128-.05.062-.099.276-.078.362-.17.058-.011.227-.016.35-.002.05-.04.105-.045.161-.01.119.018.266.067.37.098.198.269.413.436.544.189.148.364.572.608.631.177.042.384-.104.543-.143.18-.043.397.01.571-.053.222-.079.128-.337.288-.45.104-.074.287-.01.406-.051.2-.069.339-.263.376-.46.016-.082.01-.145.038-.221.039-.103.112-.16.091-.293-.01-.062-.052-.12-.064-.187-.021-.114.002-.224.001-.337-.003-.2.016-.379-.079-.55-.38-.688-1.235-.929-1.975-.789-.179.034-.286.126-.441.207-.17.088-.139.166-.318.224-.081.026-.216.124-.215.224.002.115.005.051.012.169-.021.011-.021-.005-.03-.025" fill="#fff"/></g><g><path d="m69.439-41.042c.017.072.007.127-.026.19-.053.101-.112.062-.165.128-.05.062-.1.276-.079.362-.169.058-.01.227-.016.35-.002.05-.04.105-.044.161-.011.119.017.266.067.37.097.198.268.413.435.544.19.148.365.572.608.631.178.042.384-.104.544-.143.18-.043.396.01.571-.053.222-.079.127-.337.288-.45.104-.074.287-.01.405-.051.2-.069.34-.263.377-.46.015-.082.01-.145.038-.221.038-.103.111-.16.091-.293-.011-.062-.053-.12-.065-.187-.021-.114.003-.224.001-.337-.003-.2.017-.379-.078-.55-.38-.688-1.236-.929-1.975-.789-.18.034-.286.126-.442.207-.17.088-.139.166-.318.224-.08.026-.216.124-.215.224.002.115.006.051.012.169-.021.011-.021-.005-.03-.025" fill="#fff"/><path d="m61.778-41.042c.018.072.007.127-.026.19-.053.101-.112.062-.165.128-.05.062-.099.276-.079.362-.168.058-.009.227-.015.35-.003.05-.041.105-.045.161-.01.119.017.266.067.37.098.198.269.413.436.544.189.148.364.572.608.631.177.042.384-.104.543-.143.18-.043.397.01.571-.053.222-.079.128-.337.288-.45.104-.074.287-.01.406-.051.2-.069.339-.263.376-.46.016-.082.01-.145.038-.221.039-.103.111-.16.091-.293-.01-.062-.052-.12-.064-.187-.022-.114.002-.224.001-.337-.003-.2.017-.379-.078-.55-.38-.688-1.237-.929-1.976-.789-.179.034-.286.126-.441.207-.171.088-.139.166-.318.224-.081.026-.216.124-.215.224.001.115.005.051.012.169-.021.011-.021-.005-.03-.025" fill="#fff"/><path d="m54.118-41.042c.018.072.008.127-.025.19-.053.101-.112.062-.166.128-.05.062-.099.276-.079.362-.168.058-.009.227-.015.35-.002.05-.04.105-.045.161-.01.119.018.266.068.37.097.198.268.413.435.544.19.148.365.572.608.631.178.042.384-.104.543-.143.181-.043.397.01.571-.053.222-.079.127-.337.288-.45.104-.074.287-.01.406-.051.199-.069.339-.263.376-.46.016-.082.01-.145.039-.221.038-.103.111-.16.09-.293-.01-.062-.052-.12-.064-.187-.021-.114.002-.224 0-.337-.002-.2.017-.379-.078-.55-.38-.688-1.235-.929-1.974-.789-.181.034-.287.126-.442.207-.17.088-.139.166-.318.224-.081.026-.216.124-.215.224.002.115.005.051.012.169-.021.011-.021-.005-.03-.025" fill="#fff"/><path d="m46.457-41.042c.018.072.008.127-.025.19-.053.101-.112.062-.165.128-.051.062-.099.276-.079.362-.169.058-.01.227-.015.35-.003.05-.041.105-.046.161-.009.119.018.266.068.37.098.198.269.413.436.544.189.148.364.572.608.631.177.042.384-.104.542-.143.181-.043.398.01.571-.053.222-.079.128-.337.288-.45.104-.074.287-.01.407-.051.199-.069.338-.263.375-.46.017-.082.01-.145.039-.221.039-.103.111-.16.09-.293-.009-.062-.051-.12-.063-.187-.022-.114.001-.224 0-.337-.003-.2.017-.379-.078-.55-.38-.688-1.236-.929-1.975-.789-.18.034-.287.126-.441.207-.171.088-.139.166-.318.224-.082.026-.216.124-.216.224.002.115.005.051.013.169-.021.011-.021-.005-.03-.025" fill="#fff"/><path d="m38.798-41.042c.017.072.007.127-.026.19-.053.101-.112.062-.165.128-.05.062-.1.276-.079.362-.169.058-.009.227-.016.35-.002.05-.04.105-.044.161-.011.119.017.266.067.37.097.198.268.413.435.544.19.148.365.572.608.631.178.042.384-.104.544-.143.18-.043.396.01.571-.053.222-.079.127-.337.288-.45.104-.074.287-.01.405-.051.2-.069.34-.263.377-.46.015-.082.009-.145.038-.221.038-.103.111-.16.091-.293-.011-.062-.053-.12-.065-.187-.021-.114.003-.224.001-.337-.003-.2.017-.379-.078-.55-.38-.688-1.236-.929-1.975-.789-.18.034-.286.126-.441.207-.171.088-.14.166-.319.224-.08.026-.216.124-.214.224.001.115.005.051.011.169-.021.011-.021-.005-.03-.025" fill="#fff"/><path d="m31.137-41.042c.018.072.007.127-.026.19-.053.101-.112.062-.165.128-.05.062-.099.276-.078.362-.169.058-.01.227-.016.35-.003.05-.041.105-.045.161-.01.119.017.266.067.37.098.198.269.413.436.544.189.148.364.572.608.631.177.042.384-.104.543-.143.18-.043.397.01.571-.053.222-.079.128-.337.288-.45.104-.074.287-.01.406-.051.2-.069.339-.263.376-.46.016-.082.01-.145.038-.221.039-.103.111-.16.091-.293-.01-.062-.052-.12-.064-.187-.022-.114.002-.224.001-.337-.003-.2.017-.379-.078-.55-.38-.688-1.237-.929-1.976-.789-.179.034-.286.126-.441.207-.171.088-.139.166-.318.224-.081.026-.216.124-.215.224.001.115.005.051.012.169-.021.011-.021-.005-.03-.025" fill="#fff"/><path d="m23.477-41.042c.018.072.008.127-.025.19-.054.101-.112.062-.166.128-.05.062-.099.276-.079.362-.168.058-.009.227-.015.35-.002.05-.04.105-.045.161-.01.119.018.266.068.37.097.198.268.413.435.544.19.148.365.572.608.631.178.042.384-.104.543-.143.181-.043.397.01.571-.053.222-.079.127-.337.288-.45.104-.074.287-.01.406-.051.199-.069.339-.263.376-.46.016-.082.01-.145.039-.221.038-.103.111-.16.09-.293-.01-.062-.052-.12-.064-.187-.021-.114.002-.224 0-.337-.002-.2.017-.379-.077-.55-.381-.688-1.236-.929-1.975-.789-.181.034-.287.126-.442.207-.17.088-.139.166-.318.224-.081.026-.216.124-.215.224.002.115.005.051.012.169-.021.011-.021-.005-.03-.025" fill="#fff"/><path d="m15.815-41.042c.019.072.008.127-.025.19-.053.101-.112.062-.165.128-.051.062-.099.276-.079.362-.169.058-.01.227-.015.35-.003.05-.041.105-.046.161-.009.119.018.266.068.37.098.198.269.413.436.544.189.148.364.572.608.631.177.042.384-.104.542-.143.181-.043.398.01.571-.053.222-.079.128-.337.288-.45.104-.074.287-.01.407-.051.199-.069.338-.263.375-.46.017-.082.01-.145.039-.221.039-.103.111-.16.09-.293-.009-.062-.051-.12-.063-.187-.022-.114.001-.224 0-.337-.003-.2.017-.379-.078-.55-.38-.688-1.236-.929-1.975-.789-.18.034-.287.126-.441.207-.171.088-.139.166-.318.224-.082.026-.216.124-.216.224.002.115.005.051.013.169-.021.011-.021-.005-.03-.025" fill="#fff"/><path d="m8.155-41.042c.019.072.008.127-.025.19-.053.101-.112.062-.165.128-.051.062-.1.276-.079.362-.169.058-.01.227-.015.35-.003.05-.041.105-.046.161-.009.119.018.266.068.37.097.198.268.413.435.544.19.148.365.572.608.631.178.042.384-.104.543-.143.181-.043.397.01.572-.053.221-.079.127-.337.288-.45.104-.074.287-.01.405-.051.2-.069.34-.263.377-.46.015-.082.009-.145.038-.221.038-.103.111-.16.091-.293-.011-.062-.053-.12-.065-.187-.021-.114.003-.224.001-.337-.003-.2.017-.379-.078-.55-.38-.688-1.236-.929-1.975-.789-.18.034-.286.126-.442.207-.17.088-.139.166-.317.224-.082.026-.217.124-.216.224.002.115.005.051.012.169-.021.011-.021-.005-.029-.025" fill="#fff"/><path d="m.495-41.042c.018.072.007.127-.026.19-.052.101-.111.062-.165.128-.05.062-.099.276-.078.362-.17.058-.011.227-.016.35-.002.05-.04.105-.045.161-.01.119.018.266.067.37.098.198.269.413.436.544.189.148.364.572.608.631.177.042.384-.104.543-.143.18-.043.397.01.571-.053.222-.079.128-.337.288-.45.104-.074.287-.01.406-.051.2-.069.339-.263.376-.46.016-.082.01-.145.038-.221.039-.103.112-.16.091-.293-.01-.062-.052-.12-.064-.187-.021-.114.002-.224.001-.337-.003-.2.016-.379-.079-.55-.38-.688-1.235-.929-1.975-.789-.179.034-.286.126-.441.207-.17.088-.139.166-.318.224-.081.026-.216.124-.215.224.002.115.005.051.012.169-.021.011-.021-.005-.03-.025" fill="#fff"/></g><g><path d="m69.439-33.39c.017.072.007.127-.026.19-.053.101-.112.062-.165.128-.05.062-.1.276-.079.362-.169.058-.01.227-.016.35-.002.05-.04.105-.044.161-.011.119.017.266.067.37.097.198.268.413.435.544.19.148.365.572.608.631.178.042.384-.104.544-.143.18-.043.396.01.571-.053.222-.079.127-.337.288-.45.104-.074.287-.01.405-.051.2-.069.34-.263.377-.46.015-.082.01-.145.038-.221.038-.103.111-.16.091-.293-.011-.062-.053-.12-.065-.187-.021-.114.003-.224.001-.337-.003-.2.017-.379-.078-.55-.38-.688-1.236-.929-1.975-.789-.18.034-.286.126-.442.207-.17.088-.139.166-.318.224-.08.026-.216.124-.215.224.002.115.006.051.012.169-.021.011-.021-.005-.03-.025" fill="#fff"/><path d="m61.778-33.39c.018.072.007.127-.026.19-.053.101-.112.062-.165.128-.05.062-.099.276-.079.362-.168.058-.009.227-.015.35-.003.05-.041.105-.045.161-.01.119.017.266.067.37.098.198.269.413.436.544.189.148.364.572.608.631.177.042.384-.104.543-.143.18-.043.397.01.571-.053.222-.079.128-.337.288-.45.104-.074.287-.01.406-.051.2-.069.339-.263.376-.46.016-.082.01-.145.038-.221.039-.103.111-.16.091-.293-.01-.062-.052-.12-.064-.187-.022-.114.002-.224.001-.337-.003-.2.017-.379-.078-.55-.38-.688-1.237-.929-1.976-.789-.179.034-.286.126-.441.207-.171.088-.139.166-.318.224-.081.026-.216.124-.215.224.001.115.005.051.012.169-.021.011-.021-.005-.03-.025" fill="#fff"/><path d="m54.118-33.39c.018.072.008.127-.025.19-.053.101-.112.062-.166.128-.05.062-.099.276-.079.362-.168.058-.009.227-.015.35-.002.05-.04.105-.045.161-.01.119.018.266.068.37.097.198.268.413.435.544.19.148.365.572.608.631.178.042.384-.104.543-.143.181-.043.397.01.571-.053.222-.079.127-.337.288-.45.104-.074.287-.01.406-.051.199-.069.339-.263.376-.46.016-.082.01-.145.039-.221.038-.103.111-.16.09-.293-.01-.062-.052-.12-.064-.187-.021-.114.002-.224 0-.337-.002-.2.017-.379-.078-.55-.38-.688-1.235-.929-1.974-.789-.181.034-.287.126-.442.207-.17.088-.139.166-.318.224-.081.026-.216.124-.215.224.002.115.005.051.012.169-.021.011-.021-.005-.03-.025" fill="#fff"/><path d="m46.457-33.39c.018.072.008.127-.025.19-.053.101-.112.062-.165.128-.051.062-.099.276-.079.362-.169.058-.01.227-.015.35-.003.05-.041.105-.046.161-.009.119.018.266.068.37.098.198.269.413.436.544.189.148.364.572.608.631.177.042.384-.104.542-.143.181-.043.398.01.571-.053.222-.079.128-.337.288-.45.104-.074.287-.01.407-.051.199-.069.338-.263.375-.46.017-.082.01-.145.039-.221.039-.103.111-.16.09-.293-.009-.062-.051-.12-.063-.187-.022-.114.001-.224 0-.337-.003-.2.017-.379-.078-.55-.38-.688-1.236-.929-1.975-.789-.18.034-.287.126-.441.207-.171.088-.139.166-.318.224-.082.026-.216.124-.216.224.002.115.005.051.013.169-.021.011-.021-.005-.03-.025" fill="#fff"/><path d="m38.798-33.39c.017.072.007.127-.026.19-.053.101-.112.062-.165.128-.05.062-.1.276-.079.362-.169.058-.009.227-.016.35-.002.05-.04.105-.044.161-.011.119.017.266.067.37.097.198.268.413.435.544.19.148.365.572.608.631.178.042.384-.104.544-.143.18-.043.396.01.571-.053.222-.079.127-.337.288-.45.104-.074.287-.01.405-.051.2-.069.34-.263.377-.46.015-.082.009-.145.038-.221.038-.103.111-.16.091-.293-.011-.062-.053-.12-.065-.187-.021-.114.003-.224.001-.337-.003-.2.017-.379-.078-.55-.38-.688-1.236-.929-1.975-.789-.18.034-.286.126-.441.207-.171.088-.14.166-.319.224-.08.026-.216.124-.214.224.001.115.005.051.011.169-.021.011-.021-.005-.03-.025" fill="#fff"/><path d="m31.137-33.39c.018.072.007.127-.026.19-.053.101-.112.062-.165.128-.05.062-.099.276-.078.362-.169.058-.01.227-.016.35-.003.05-.041.105-.045.161-.01.119.017.266.067.37.098.198.269.413.436.544.189.148.364.572.608.631.177.042.384-.104.543-.143.18-.043.397.01.571-.053.222-.079.128-.337.288-.45.104-.074.287-.01.406-.051.2-.069.339-.263.376-.46.016-.082.01-.145.038-.221.039-.103.111-.16.091-.293-.01-.062-.052-.12-.064-.187-.022-.114.002-.224.001-.337-.003-.2.017-.379-.078-.55-.38-.688-1.237-.929-1.976-.789-.179.034-.286.126-.441.207-.171.088-.139.166-.318.224-.081.026-.216.124-.215.224.001.115.005.051.012.169-.021.011-.021-.005-.03-.025" fill="#fff"/><path d="m23.477-33.39c.018.072.008.127-.025.19-.054.101-.112.062-.166.128-.05.062-.099.276-.079.362-.168.058-.009.227-.015.35-.002.05-.04.105-.045.161-.01.119.018.266.068.37.097.198.268.413.435.544.19.148.365.572.608.631.178.042.384-.104.543-.143.181-.043.397.01.571-.053.222-.079.127-.337.288-.45.104-.074.287-.01.406-.051.199-.069.339-.263.376-.46.016-.082.01-.145.039-.221.038-.103.111-.16.09-.293-.01-.062-.052-.12-.064-.187-.021-.114.002-.224 0-.337-.002-.2.017-.379-.077-.55-.381-.688-1.236-.929-1.975-.789-.181.034-.287.126-.442.207-.17.088-.139.166-.318.224-.081.026-.216.124-.215.224.002.115.005.051.012.169-.021.011-.021-.005-.03-.025" fill="#fff"/><path d="m15.815-33.39c.019.072.008.127-.025.19-.053.101-.112.062-.165.128-.051.062-.099.276-.079.362-.169.058-.01.227-.015.35-.003.05-.041.105-.046.161-.009.119.018.266.068.37.098.198.269.413.436.544.189.148.364.572.608.631.177.042.384-.104.542-.143.181-.043.398.01.571-.053.222-.079.128-.337.288-.45.104-.074.287-.01.407-.051.199-.069.338-.263.375-.46.017-.082.01-.145.039-.221.039-.103.111-.16.09-.293-.009-.062-.051-.12-.063-.187-.022-.114.001-.224 0-.337-.003-.2.017-.379-.078-.55-.38-.688-1.236-.929-1.975-.789-.18.034-.287.126-.441.207-.171.088-.139.166-.318.224-.082.026-.216.124-.216.224.002.115.005.051.013.169-.021.011-.021-.005-.03-.025" fill="#fff"/><path d="m8.155-33.39c.019.072.008.127-.025.19-.053.101-.112.062-.165.128-.051.062-.1.276-.079.362-.169.058-.01.227-.015.35-.003.05-.041.105-.046.161-.009.119.018.266.068.37.097.198.268.413.435.544.19.148.365.572.608.631.178.042.384-.104.543-.143.181-.043.397.01.572-.053.221-.079.127-.337.288-.45.104-.074.287-.01.405-.051.2-.069.34-.263.377-.46.015-.082.009-.145.038-.221.038-.103.111-.16.091-.293-.011-.062-.053-.12-.065-.187-.021-.114.003-.224.001-.337-.003-.2.017-.379-.078-.55-.38-.688-1.236-.929-1.975-.789-.18.034-.286.126-.442.207-.17.088-.139.166-.317.224-.082.026-.217.124-.216.224.002.115.005.051.012.169-.021.011-.021-.005-.029-.025" fill="#fff"/><path d="m.495-33.39c.018.072.007.127-.026.19-.052.101-.111.062-.165.128-.05.062-.099.276-.078.362-.17.058-.011.227-.016.35-.002.05-.04.105-.045.161-.01.119.018.266.067.37.098.198.269.413.436.544.189.148.364.572.608.631.177.042.384-.104.543-.143.18-.043.397.01.571-.053.222-.079.128-.337.288-.45.104-.074.287-.01.406-.051.2-.069.339-.263.376-.46.016-.082.01-.145.038-.221.039-.103.112-.16.091-.293-.01-.062-.052-.12-.064-.187-.021-.114.002-.224.001-.337-.003-.2.016-.379-.079-.55-.38-.688-1.235-.929-1.975-.789-.179.034-.286.126-.441.207-.17.088-.139.166-.318.224-.081.026-.216.124-.215.224.002.117.005.053.012.171-.021.011-.021-.005-.03-.025" fill="#fff"/></g><g><path d="m69.439-25.736c.017.072.007.127-.026.19-.053.101-.112.062-.165.128-.05.062-.1.276-.079.362-.169.058-.01.227-.016.35-.002.05-.04.105-.044.161-.011.119.017.266.067.37.097.198.268.413.435.544.19.148.365.572.608.631.178.042.384-.104.544-.143.18-.043.396.01.571-.053.222-.079.127-.337.288-.45.104-.074.287-.01.405-.051.2-.069.34-.263.377-.46.015-.082.01-.145.038-.221.038-.103.111-.16.091-.293-.011-.062-.053-.12-.065-.187-.021-.114.003-.224.001-.337-.003-.2.017-.379-.078-.55-.38-.688-1.236-.929-1.975-.789-.18.034-.286.126-.442.207-.17.088-.139.166-.318.224-.08.026-.216.124-.215.224.002.115.006.051.012.169-.021.011-.021-.005-.03-.025" fill="#fff"/><path d="m61.778-25.736c.018.072.007.127-.026.19-.053.101-.112.062-.165.128-.05.062-.099.276-.079.362-.168.058-.009.227-.015.35-.003.05-.041.105-.045.161-.01.119.017.266.067.37.098.198.269.413.436.544.189.148.364.572.608.631.177.042.384-.104.543-.143.18-.043.397.01.571-.053.222-.079.128-.337.288-.45.104-.074.287-.01.406-.051.2-.069.339-.263.376-.46.016-.082.01-.145.038-.221.039-.103.111-.16.091-.293-.01-.062-.052-.12-.064-.187-.022-.114.002-.224.001-.337-.003-.2.017-.379-.078-.55-.38-.688-1.237-.929-1.976-.789-.179.034-.286.126-.441.207-.171.088-.139.166-.318.224-.081.026-.216.124-.215.224.001.115.005.051.012.169-.021.011-.021-.005-.03-.025" fill="#fff"/><path d="m54.118-25.736c.018.072.008.127-.025.19-.053.101-.112.062-.166.128-.05.062-.099.276-.079.362-.168.058-.009.227-.015.35-.002.05-.04.105-.045.161-.01.119.018.266.068.37.097.198.268.413.435.544.19.148.365.572.608.631.178.042.384-.104.543-.143.181-.043.397.01.571-.053.222-.079.127-.337.288-.45.104-.074.287-.01.406-.051.199-.069.339-.263.376-.46.016-.082.01-.145.039-.221.038-.103.111-.16.09-.293-.01-.062-.052-.12-.064-.187-.021-.114.002-.224 0-.337-.002-.2.017-.379-.078-.55-.38-.688-1.235-.929-1.974-.789-.181.034-.287.126-.442.207-.17.088-.139.166-.318.224-.081.026-.216.124-.215.224.002.115.005.051.012.169-.021.011-.021-.005-.03-.025" fill="#fff"/><path d="m46.457-25.736c.018.072.008.127-.025.19-.053.101-.112.062-.165.128-.051.062-.099.276-.079.362-.169.058-.01.227-.015.35-.003.05-.041.105-.046.161-.009.119.018.266.068.37.098.198.269.413.436.544.189.148.364.572.608.631.177.042.384-.104.542-.143.181-.043.398.01.571-.053.222-.079.128-.337.288-.45.104-.074.287-.01.407-.051.199-.069.338-.263.375-.46.017-.082.01-.145.039-.221.039-.103.111-.16.09-.293-.009-.062-.051-.12-.063-.187-.022-.114.001-.224 0-.337-.003-.2.017-.379-.078-.55-.38-.688-1.236-.929-1.975-.789-.18.034-.287.126-.441.207-.171.088-.139.166-.318.224-.082.026-.216.124-.216.224.002.115.005.051.013.169-.021.011-.021-.005-.03-.025" fill="#fff"/><path d="m38.798-25.736c.017.072.007.127-.026.19-.053.101-.112.062-.165.128-.05.062-.1.276-.079.362-.169.058-.009.227-.016.35-.002.05-.04.105-.044.161-.011.119.017.266.067.37.097.198.268.413.435.544.19.148.365.572.608.631.178.042.384-.104.544-.143.18-.043.396.01.571-.053.222-.079.127-.337.288-.45.104-.074.287-.01.405-.051.2-.069.34-.263.377-.46.015-.082.009-.145.038-.221.038-.103.111-.16.091-.293-.011-.062-.053-.12-.065-.187-.021-.114.003-.224.001-.337-.003-.2.017-.379-.078-.55-.38-.688-1.236-.929-1.975-.789-.18.034-.286.126-.441.207-.171.088-.14.166-.319.224-.08.026-.216.124-.214.224.001.115.005.051.011.169-.021.011-.021-.005-.03-.025" fill="#fff"/><path d="m31.137-25.736c.018.072.007.127-.026.19-.053.101-.112.062-.165.128-.05.062-.099.276-.078.362-.169.058-.01.227-.016.35-.003.05-.041.105-.045.161-.01.119.017.266.067.37.098.198.269.413.436.544.189.148.364.572.608.631.177.042.384-.104.543-.143.18-.043.397.01.571-.053.222-.079.128-.337.288-.45.104-.074.287-.01.406-.051.2-.069.339-.263.376-.46.016-.082.01-.145.038-.221.039-.103.111-.16.091-.293-.01-.062-.052-.12-.064-.187-.022-.114.002-.224.001-.337-.003-.2.017-.379-.078-.55-.38-.688-1.237-.929-1.976-.789-.179.034-.286.126-.441.207-.171.088-.139.166-.318.224-.081.026-.216.124-.215.224.001.115.005.051.012.169-.021.011-.021-.005-.03-.025" fill="#fff"/><path d="m23.477-25.736c.018.072.008.127-.025.19-.054.101-.112.062-.166.128-.05.062-.099.276-.079.362-.168.058-.009.227-.015.35-.002.05-.04.105-.045.161-.01.119.018.266.068.37.097.198.268.413.435.544.19.148.365.572.608.631.178.042.384-.104.543-.143.181-.043.397.01.571-.053.222-.079.127-.337.288-.45.104-.074.287-.01.406-.051.199-.069.339-.263.376-.46.016-.082.01-.145.039-.221.038-.103.111-.16.09-.293-.01-.062-.052-.12-.064-.187-.021-.114.002-.224 0-.337-.002-.2.017-.379-.077-.55-.381-.688-1.236-.929-1.975-.789-.181.034-.287.126-.442.207-.17.088-.139.166-.318.224-.081.026-.216.124-.215.224.002.115.005.051.012.169-.021.011-.021-.005-.03-.025" fill="#fff"/><path d="m15.815-25.736c.019.072.008.127-.025.19-.053.101-.112.062-.165.128-.051.062-.099.276-.079.362-.169.058-.01.227-.015.35-.003.05-.041.105-.046.161-.009.119.018.266.068.37.098.198.269.413.436.544.189.148.364.572.608.631.177.042.384-.104.542-.143.181-.043.398.01.571-.053.222-.079.128-.337.288-.45.104-.074.287-.01.407-.051.199-.069.338-.263.375-.46.017-.082.01-.145.039-.221.039-.103.111-.16.09-.293-.009-.062-.051-.12-.063-.187-.022-.114.001-.224 0-.337-.003-.2.017-.379-.078-.55-.38-.688-1.236-.929-1.975-.789-.18.034-.287.126-.441.207-.171.088-.139.166-.318.224-.082.026-.216.124-.216.224.002.115.005.051.013.169-.021.011-.021-.005-.03-.025" fill="#fff"/><path d="m8.155-25.736c.019.072.008.127-.025.19-.053.101-.112.062-.165.128-.051.062-.1.276-.079.362-.169.058-.01.227-.015.35-.003.05-.041.105-.046.161-.009.119.018.266.068.37.097.198.268.413.435.544.19.148.365.572.608.631.178.042.384-.104.543-.143.181-.043.397.01.572-.053.221-.079.127-.337.288-.45.104-.074.287-.01.405-.051.2-.069.34-.263.377-.46.015-.082.009-.145.038-.221.038-.103.111-.16.091-.293-.011-.062-.053-.12-.065-.187-.021-.114.003-.224.001-.337-.003-.2.017-.379-.078-.55-.38-.688-1.236-.929-1.975-.789-.18.034-.286.126-.442.207-.17.088-.139.166-.317.224-.082.026-.217.124-.216.224.002.115.005.051.012.169-.021.011-.021-.005-.029-.025" fill="#fff"/><path d="m.495-25.736c.018.072.007.127-.026.19-.052.101-.111.062-.165.128-.05.062-.099.276-.078.362-.17.058-.011.227-.016.35-.002.05-.04.105-.045.161-.01.119.018.266.067.37.098.198.269.413.436.544.189.149.364.572.608.631.177.042.384-.104.543-.143.18-.043.397.01.571-.053.222-.079.128-.337.288-.45.104-.074.287-.01.406-.051.2-.069.339-.263.376-.46.016-.082.01-.145.038-.221.039-.103.112-.16.091-.293-.01-.062-.052-.12-.064-.187-.021-.114.002-.224.001-.337-.003-.2.016-.379-.079-.55-.38-.688-1.235-.929-1.975-.789-.179.034-.286.126-.441.207-.17.088-.139.166-.318.224-.081.026-.216.124-.215.224.002.115.005.051.012.169-.021.011-.021-.005-.03-.025" fill="#fff"/></g><g><path d="m69.439-18.084c.017.072.007.127-.026.19-.053.101-.112.062-.165.128-.05.062-.1.276-.079.362-.169.058-.01.227-.016.35-.002.05-.04.105-.044.161-.011.119.017.266.067.37.097.198.268.413.435.544.19.148.365.572.608.631.178.042.384-.104.544-.143.18-.043.396.01.571-.053.222-.079.127-.337.288-.45.104-.074.287-.01.405-.051.2-.069.34-.263.377-.46.015-.082.01-.145.038-.221.038-.103.111-.16.091-.293-.011-.062-.053-.12-.065-.187-.021-.114.003-.224.001-.337-.003-.2.017-.379-.078-.55-.38-.688-1.236-.929-1.975-.789-.18.034-.286.126-.442.207-.17.088-.139.166-.318.224-.08.026-.216.124-.215.224.002.115.006.051.012.169-.021.011-.021-.005-.03-.025" fill="#fff"/><path d="m61.778-18.084c.018.072.007.127-.026.19-.053.101-.112.062-.165.128-.05.062-.099.276-.079.362-.168.058-.009.227-.015.35-.003.05-.041.105-.045.161-.01.119.017.266.067.37.098.198.269.413.436.544.189.148.364.572.608.631.177.042.384-.104.543-.143.18-.043.397.01.571-.053.222-.079.128-.337.288-.45.104-.074.287-.01.406-.051.2-.069.339-.263.376-.46.016-.082.01-.145.038-.221.039-.103.111-.16.091-.293-.01-.062-.052-.12-.064-.187-.022-.114.002-.224.001-.337-.003-.2.017-.379-.078-.55-.38-.688-1.237-.929-1.976-.789-.179.034-.286.126-.441.207-.171.088-.139.166-.318.224-.081.026-.216.124-.215.224.001.115.005.051.012.169-.021.011-.021-.005-.03-.025" fill="#fff"/><path d="m54.118-18.084c.018.072.008.127-.025.19-.053.101-.112.062-.166.128-.05.062-.099.276-.079.362-.168.058-.009.227-.015.35-.002.05-.04.105-.045.161-.01.119.018.266.068.37.097.198.268.413.435.544.19.148.365.572.608.631.178.042.384-.104.543-.143.181-.043.397.01.571-.053.222-.079.127-.337.288-.45.104-.074.287-.01.406-.051.199-.069.339-.263.376-.46.016-.082.01-.145.039-.221.038-.103.111-.16.09-.293-.01-.062-.052-.12-.064-.187-.021-.114.002-.224 0-.337-.002-.2.017-.379-.078-.55-.38-.688-1.235-.929-1.974-.789-.181.034-.287.126-.442.207-.17.088-.139.166-.318.224-.081.026-.216.124-.215.224.002.115.005.051.012.169-.021.011-.021-.005-.03-.025" fill="#fff"/><path d="m46.457-18.084c.018.072.008.127-.025.19-.053.101-.112.062-.165.128-.051.062-.099.276-.079.362-.169.058-.01.227-.015.35-.003.05-.041.105-.046.161-.009.119.018.266.068.37.098.198.269.413.436.544.189.148.364.572.608.631.177.042.384-.104.542-.143.181-.043.398.01.571-.053.222-.079.128-.337.288-.45.104-.074.287-.01.407-.051.199-.069.338-.263.375-.46.017-.082.01-.145.039-.221.039-.103.111-.16.09-.293-.009-.062-.051-.12-.063-.187-.022-.114.001-.224 0-.337-.003-.2.017-.379-.078-.55-.38-.688-1.236-.929-1.975-.789-.18.034-.287.126-.441.207-.171.088-.139.166-.318.224-.082.026-.216.124-.216.224.002.115.005.051.013.169-.021.011-.021-.005-.03-.025" fill="#fff"/><path d="m38.798-18.084c.017.072.007.127-.026.19-.053.101-.112.062-.165.128-.05.062-.1.276-.079.362-.169.058-.009.227-.016.35-.002.05-.04.105-.044.161-.011.119.017.266.067.37.097.198.268.413.435.544.19.148.365.572.608.631.178.042.384-.104.544-.143.18-.043.396.01.571-.053.222-.079.127-.337.288-.45.104-.074.287-.01.405-.051.2-.069.34-.263.377-.46.015-.082.009-.145.038-.221.038-.103.111-.16.091-.293-.011-.062-.053-.12-.065-.187-.021-.114.003-.224.001-.337-.003-.2.017-.379-.078-.55-.38-.688-1.236-.929-1.975-.789-.18.034-.286.126-.441.207-.171.088-.14.166-.319.224-.08.026-.216.124-.214.224.001.115.005.051.011.169-.021.011-.021-.005-.03-.025" fill="#fff"/><path d="m31.137-18.084c.018.072.007.127-.026.19-.053.101-.112.062-.165.128-.05.062-.099.276-.078.362-.169.058-.01.227-.016.35-.003.05-.041.105-.045.161-.01.119.017.266.067.37.098.198.269.413.436.544.189.148.364.572.608.631.177.042.384-.104.543-.143.18-.043.397.01.571-.053.222-.079.128-.337.288-.45.104-.074.287-.01.406-.051.2-.069.339-.263.376-.46.016-.082.01-.145.038-.221.039-.103.111-.16.091-.293-.01-.062-.052-.12-.064-.187-.022-.114.002-.224.001-.337-.003-.2.017-.379-.078-.55-.38-.688-1.237-.929-1.976-.789-.179.034-.286.126-.441.207-.171.088-.139.166-.318.224-.081.026-.216.124-.215.224.001.115.005.051.012.169-.021.011-.021-.005-.03-.025" fill="#fff"/><path d="m23.477-18.084c.018.072.008.127-.025.19-.054.101-.112.062-.166.128-.05.062-.099.276-.079.362-.168.058-.009.227-.015.35-.002.05-.04.105-.045.161-.01.119.018.266.068.37.097.198.268.413.435.544.19.148.365.572.608.631.178.042.384-.104.543-.143.181-.043.397.01.571-.053.222-.079.127-.337.288-.45.104-.074.287-.01.406-.051.199-.069.339-.263.376-.46.016-.082.01-.145.039-.221.038-.103.111-.16.09-.293-.01-.062-.052-.12-.064-.187-.021-.114.002-.224 0-.337-.002-.2.017-.379-.077-.55-.381-.688-1.236-.929-1.975-.789-.181.034-.287.126-.442.207-.17.088-.139.166-.318.224-.081.026-.216.124-.215.224.002.115.005.051.012.169-.021.011-.021-.005-.03-.025" fill="#fff"/><path d="m15.815-18.084c.019.072.008.127-.025.19-.053.101-.112.062-.165.128-.051.062-.099.276-.079.362-.169.058-.01.227-.015.35-.003.05-.041.105-.046.161-.009.119.018.266.068.37.098.198.269.413.436.544.189.148.364.572.608.631.177.042.384-.104.542-.143.181-.043.398.01.571-.053.222-.079.128-.337.288-.45.104-.074.287-.01.407-.051.199-.069.338-.263.375-.46.017-.082.01-.145.039-.221.039-.103.111-.16.09-.293-.009-.062-.051-.12-.063-.187-.022-.114.001-.224 0-.337-.003-.2.017-.379-.078-.55-.38-.688-1.236-.929-1.975-.789-.18.034-.287.126-.441.207-.171.088-.139.166-.318.224-.082.026-.216.124-.216.224.002.115.005.051.013.169-.021.011-.021-.005-.03-.025" fill="#fff"/><path d="m8.155-18.084c.019.072.008.127-.025.19-.053.101-.112.062-.165.128-.051.062-.1.276-.079.362-.169.058-.01.227-.015.35-.003.05-.041.105-.046.161-.009.119.018.266.068.37.097.198.268.413.435.544.19.148.365.572.608.631.178.042.384-.104.543-.143.181-.043.397.01.572-.053.221-.079.127-.337.288-.45.104-.074.287-.01.405-.051.2-.069.34-.263.377-.46.015-.082.009-.145.038-.221.038-.103.111-.16.091-.293-.011-.062-.053-.12-.065-.187-.021-.114.003-.224.001-.337-.003-.2.017-.379-.078-.55-.38-.688-1.236-.929-1.975-.789-.18.034-.286.126-.442.207-.17.088-.139.166-.317.224-.082.026-.217.124-.216.224.002.115.005.051.012.169-.021.011-.021-.005-.029-.025" fill="#fff"/><path d="m.495-18.084c.018.072.007.127-.026.19-.052.101-.111.062-.165.128-.05.062-.099.276-.078.362-.17.058-.011.227-.016.35-.002.05-.04.105-.045.161-.01.119.018.266.067.37.098.198.269.413.436.544.189.148.364.572.608.631.177.042.384-.104.543-.143.18-.043.397.01.571-.053.222-.079.128-.337.288-.45.104-.074.287-.01.406-.051.2-.069.339-.263.376-.46.016-.082.01-.145.038-.221.039-.103.112-.16.091-.293-.01-.062-.052-.12-.064-.187-.021-.114.002-.224.001-.337-.003-.2.016-.379-.079-.55-.38-.688-1.235-.929-1.975-.789-.179.034-.286.126-.441.207-.17.088-.139.166-.318.224-.081.026-.216.124-.215.224.002.117.005.052.012.17-.021.011-.021-.005-.03-.025" fill="#fff"/></g><g><path d="m69.439-10.431c.017.072.007.127-.026.19-.053.101-.112.062-.165.128-.05.062-.1.276-.079.362-.169.059-.01.228-.016.351-.002.05-.04.105-.044.161-.011.119.017.266.067.37.097.198.268.413.435.544.19.148.365.572.608.631.178.042.384-.104.544-.143.18-.043.396.01.571-.053.222-.079.127-.337.288-.45.104-.074.287-.01.405-.051.2-.069.34-.263.377-.46.015-.082.01-.145.038-.221.038-.103.111-.16.091-.293-.011-.062-.053-.12-.065-.187-.021-.114.003-.224.001-.337-.003-.2.017-.379-.078-.55-.38-.688-1.236-.929-1.975-.789-.18.034-.286.126-.442.207-.17.088-.139.166-.318.224-.08.026-.216.124-.215.224.002.115.006.051.012.169-.021.011-.021-.005-.03-.025" fill="#fff"/><path d="m61.778-10.431c.018.072.007.127-.026.19-.053.101-.112.062-.165.128-.05.062-.099.276-.079.362-.168.058-.009.227-.015.35-.003.05-.041.105-.045.161-.01.119.017.266.067.37.098.198.269.413.436.544.189.148.364.572.608.631.177.042.384-.104.543-.143.18-.043.397.01.571-.053.222-.079.128-.337.288-.45.104-.074.287-.01.406-.051.2-.069.339-.263.376-.46.016-.082.01-.145.038-.221.039-.103.111-.16.091-.293-.01-.062-.052-.12-.064-.187-.022-.114.002-.224.001-.337-.003-.2.017-.379-.078-.55-.38-.688-1.237-.929-1.976-.789-.179.034-.286.126-.441.207-.171.088-.139.166-.318.224-.081.026-.216.124-.215.224.001.115.005.051.012.169-.021.011-.021-.005-.03-.025" fill="#fff"/><path d="m54.118-10.431c.018.072.008.127-.025.19-.053.101-.112.062-.166.128-.05.062-.099.276-.079.362-.168.058-.009.227-.015.35-.002.05-.04.105-.045.161-.01.119.018.266.068.37.097.198.268.413.435.544.19.148.365.572.608.631.178.042.384-.104.543-.143.181-.043.397.01.571-.053.222-.079.127-.337.288-.45.104-.074.287-.01.406-.051.199-.069.339-.263.376-.46.016-.082.01-.145.039-.221.038-.103.111-.16.09-.293-.01-.062-.052-.12-.064-.187-.021-.114.002-.224 0-.337-.002-.2.017-.379-.078-.55-.38-.688-1.235-.929-1.974-.789-.181.034-.287.126-.442.207-.17.088-.139.166-.318.224-.081.026-.216.124-.215.224.002.115.005.051.012.169-.021.011-.021-.005-.03-.025" fill="#fff"/><path d="m46.457-10.431c.018.072.008.127-.025.19-.053.101-.112.062-.165.128-.051.062-.099.276-.079.362-.169.058-.01.227-.015.35-.003.05-.041.105-.046.161-.009.119.018.266.068.37.098.198.269.413.436.544.189.148.364.572.608.631.177.042.384-.104.542-.143.181-.043.398.01.571-.053.222-.079.128-.337.288-.45.104-.074.287-.01.407-.051.199-.069.338-.263.375-.46.017-.082.01-.145.039-.221.039-.103.111-.16.09-.293-.009-.062-.051-.12-.063-.187-.022-.114.001-.224 0-.337-.003-.2.017-.379-.078-.55-.38-.688-1.236-.929-1.975-.789-.18.034-.287.126-.441.207-.171.088-.139.166-.318.224-.082.026-.216.124-.216.224.002.115.005.051.013.169-.021.011-.021-.005-.03-.025" fill="#fff"/><path d="m38.798-10.431c.017.072.007.127-.026.19-.053.101-.112.062-.165.128-.05.062-.1.276-.079.362-.169.058-.009.227-.016.35-.002.05-.04.105-.044.161-.011.119.017.266.067.37.097.198.268.413.435.544.19.148.365.572.608.631.178.042.384-.104.544-.143.18-.043.396.01.571-.053.222-.079.127-.337.288-.45.104-.074.287-.01.405-.051.2-.069.34-.263.377-.46.015-.082.009-.145.038-.221.038-.103.111-.16.091-.293-.011-.062-.053-.12-.065-.187-.021-.114.003-.224.001-.337-.003-.2.017-.379-.078-.55-.38-.688-1.236-.929-1.975-.789-.18.034-.286.126-.441.207-.171.088-.14.166-.319.224-.08.026-.216.124-.214.224.001.115.005.051.011.169-.021.011-.021-.005-.03-.025" fill="#fff"/><path d="m31.137-10.431c.018.072.007.127-.026.19-.053.101-.112.062-.165.128-.05.062-.099.276-.078.362-.169.058-.01.227-.016.35-.003.05-.041.105-.045.161-.01.119.017.266.067.37.098.198.269.413.436.544.189.148.364.572.608.631.177.042.384-.104.543-.143.18-.043.397.01.571-.053.222-.079.128-.337.288-.45.104-.074.287-.01.406-.051.2-.069.339-.263.376-.46.016-.082.01-.145.038-.221.039-.103.111-.16.091-.293-.01-.062-.052-.12-.064-.187-.022-.114.002-.224.001-.337-.003-.2.017-.379-.078-.55-.38-.688-1.237-.929-1.976-.789-.179.034-.286.126-.441.207-.171.088-.139.166-.318.224-.081.026-.216.124-.215.224.001.115.005.051.012.169-.021.011-.021-.005-.03-.025" fill="#fff"/><path d="m23.477-10.431c.018.072.008.127-.025.19-.054.101-.112.062-.166.128-.05.062-.099.276-.079.362-.168.058-.009.227-.015.35-.002.05-.04.105-.045.161-.01.119.018.266.068.37.097.198.268.413.435.544.19.148.365.572.608.631.178.042.384-.104.543-.143.181-.043.397.01.571-.053.222-.079.127-.337.288-.45.104-.074.287-.01.406-.051.199-.069.339-.263.376-.46.016-.082.01-.145.039-.221.038-.103.111-.16.09-.293-.01-.062-.052-.12-.064-.187-.021-.114.002-.224 0-.337-.002-.2.017-.379-.077-.55-.381-.688-1.236-.929-1.975-.789-.181.034-.287.126-.442.207-.17.088-.139.166-.318.224-.081.026-.216.124-.215.224.002.115.005.051.012.169-.021.011-.021-.005-.03-.025" fill="#fff"/><path d="m15.815-10.431c.019.072.008.127-.025.19-.053.101-.112.062-.165.128-.051.062-.099.276-.079.362-.169.058-.01.227-.015.35-.003.05-.041.105-.046.161-.009.119.018.266.068.37.098.198.269.413.436.544.189.148.364.572.608.631.177.042.384-.104.542-.143.181-.043.398.01.571-.053.222-.079.128-.337.288-.45.104-.074.287-.01.407-.051.199-.069.338-.263.375-.46.017-.082.01-.145.039-.221.039-.103.111-.16.09-.293-.009-.062-.051-.12-.063-.187-.022-.114.001-.224 0-.337-.003-.2.017-.379-.078-.55-.38-.688-1.236-.929-1.975-.789-.18.034-.287.126-.441.207-.171.088-.139.166-.318.224-.082.026-.216.124-.216.224.002.115.005.051.013.169-.021.011-.021-.005-.03-.025" fill="#fff"/><path d="m8.155-10.431c.019.072.008.127-.025.19-.053.101-.112.062-.165.128-.051.062-.1.276-.079.362-.169.059-.01.228-.015.351-.003.049-.041.105-.046.161-.009.119.018.265.069.37.096.198.267.413.434.544.19.148.365.572.608.631.178.042.384-.105.543-.143.181-.043.398.01.573-.053.221-.079.127-.337.288-.45.104-.074.287-.01.405-.051.2-.069.34-.263.377-.46.015-.082.009-.145.038-.221.038-.103.111-.16.091-.293-.011-.062-.053-.12-.065-.187-.021-.114.003-.224.001-.337-.003-.2.017-.379-.078-.55-.38-.688-1.236-.929-1.975-.789-.18.034-.286.126-.442.207-.17.088-.139.166-.317.224-.082.026-.217.124-.216.224.002.115.005.051.012.169-.021.011-.021-.005-.029-.025" fill="#fff"/><path d="m.495-10.431c.018.072.007.127-.026.19-.052.101-.111.062-.165.128-.05.063-.099.277-.078.363-.17.058-.011.227-.016.35-.002.05-.04.105-.045.161-.01.119.018.266.067.37.098.198.269.413.436.544.189.148.364.572.608.631.177.042.384-.105.543-.143.18-.043.397.01.571-.053.222-.079.128-.337.288-.45.104-.074.287-.01.406-.051.2-.069.339-.263.376-.46.016-.082.01-.145.038-.221.039-.103.112-.16.091-.293-.01-.062-.052-.12-.064-.187-.021-.113.002-.222.001-.336-.003-.2.016-.379-.079-.55-.38-.688-1.235-.929-1.975-.789-.179.034-.286.126-.441.207-.17.088-.139.166-.318.224-.081.026-.216.124-.215.224.002.115.005.051.012.169-.021.011-.021-.005-.03-.025" fill="#fff"/></g></g><g><path d="m69.439-2.778c.017.072.008.127-.026.19-.053.101-.112.062-.165.128-.051.062-.1.276-.079.362-.169.058-.01.227-.016.35-.002.05-.04.105-.044.161-.011.119.017.266.067.37.097.198.268.413.435.544.19.148.365.572.608.631.178.042.385-.104.545-.143.18-.043.396.01.571-.053.222-.079.127-.337.288-.45.104-.074.287-.01.405-.051.2-.07.34-.263.377-.46.015-.082.01-.145.038-.221.038-.103.111-.16.091-.293-.011-.062-.052-.12-.065-.187-.021-.114.003-.224.001-.337-.003-.2.017-.379-.078-.55-.38-.688-1.236-.929-1.975-.789-.18.034-.286.126-.442.207-.17.088-.139.166-.318.224-.08.026-.215.124-.215.224.002.115.006.051.012.169-.021.011-.021-.005-.03-.025" fill="#fff"/><path d="m61.778-2.778c.018.072.007.127-.026.19-.053.101-.112.062-.165.128-.05.062-.099.276-.079.362-.168.058-.01.227-.015.35-.003.05-.041.105-.045.161-.01.119.017.266.067.37.098.198.269.413.436.544.189.148.364.572.608.631.177.042.384-.104.544-.143.18-.043.397.01.571-.053.222-.079.128-.337.288-.45.104-.074.287-.01.406-.051.2-.069.339-.263.376-.46.016-.082.01-.145.038-.221.039-.103.111-.16.091-.293-.01-.062-.052-.12-.064-.187-.022-.114.002-.224.001-.337-.003-.2.017-.379-.078-.55-.38-.688-1.237-.929-1.976-.789-.179.034-.286.126-.441.207-.171.088-.139.166-.318.224-.082.028-.217.125-.216.225.001.115.005.051.012.169-.021.011-.021-.005-.03-.025" fill="#fff"/><path d="m54.118-2.778c.018.072.008.127-.025.19-.053.101-.113.063-.166.128-.05.062-.099.276-.079.362-.168.058-.009.227-.015.35-.002.05-.04.105-.045.161-.01.119.018.266.068.37.097.198.268.413.435.544.19.148.365.572.608.631.178.042.384-.104.543-.143.181-.043.397.01.571-.053.222-.079.127-.337.288-.45.104-.074.287-.01.406-.051.199-.069.339-.263.376-.46.016-.082.01-.145.039-.221.038-.103.111-.16.09-.293-.01-.062-.052-.12-.064-.187-.021-.114.002-.224 0-.337-.002-.2.017-.379-.078-.55-.38-.688-1.235-.929-1.974-.789-.181.034-.287.126-.442.207-.17.088-.139.166-.318.224-.081.028-.216.125-.215.225.002.115.005.051.012.169-.021.011-.021-.005-.03-.025" fill="#fff"/><path d="m46.457-2.778c.018.072.008.127-.025.19-.053.101-.112.062-.165.128-.051.062-.099.276-.079.362-.169.058-.01.227-.015.35-.003.05-.041.105-.046.161-.009.119.018.266.068.37.098.198.269.413.436.544.189.148.364.572.608.631.177.042.384-.104.542-.143.181-.043.398.01.571-.053.222-.079.128-.337.288-.45.104-.074.287-.01.407-.051.199-.069.338-.263.375-.46.017-.082.01-.145.039-.221.039-.103.111-.16.09-.293-.009-.062-.051-.12-.063-.187-.022-.114.001-.224 0-.337-.003-.2.017-.379-.078-.55-.38-.688-1.236-.929-1.975-.789-.18.034-.287.126-.441.207-.171.088-.139.166-.318.224-.082.028-.216.125-.216.225.002.115.005.051.013.169-.021.011-.021-.005-.03-.025" fill="#fff"/><path d="m38.798-2.778c.017.072.007.127-.026.19-.053.101-.112.062-.165.128-.05.062-.1.276-.079.362-.169.058-.01.227-.016.35-.002.05-.04.105-.044.161-.011.119.017.266.067.37.097.198.268.413.435.544.19.148.365.572.608.631.178.042.384-.104.544-.143.18-.043.396.01.571-.053.222-.079.127-.337.288-.45.104-.074.287-.01.405-.051.2-.069.34-.263.377-.46.015-.082.009-.145.038-.221.038-.103.111-.16.091-.293-.011-.062-.053-.12-.065-.187-.021-.114.003-.224.001-.337-.003-.2.017-.379-.078-.55-.38-.688-1.236-.929-1.975-.789-.18.034-.286.126-.441.207-.171.088-.14.166-.319.224-.08.026-.216.124-.214.224.001.115.005.051.011.169-.021.011-.021-.005-.03-.025" fill="#fff"/><path d="m31.137-2.778c.018.072.007.127-.026.19-.053.101-.112.062-.165.128-.05.062-.099.276-.078.362-.169.058-.011.227-.016.35-.003.05-.041.105-.045.161-.01.119.017.266.067.37.098.198.269.413.436.544.189.148.364.572.608.631.177.042.384-.104.543-.143.18-.043.397.01.571-.053.222-.079.128-.337.288-.45.104-.074.287-.01.406-.051.2-.069.339-.263.376-.46.016-.082.01-.145.038-.221.039-.103.111-.16.091-.293-.01-.062-.052-.12-.064-.187-.022-.114.002-.224.001-.337-.003-.2.017-.379-.078-.55-.38-.688-1.237-.929-1.976-.789-.179.034-.286.126-.441.207-.171.088-.139.166-.318.224-.082.028-.216.125-.215.225.001.115.005.051.012.169-.021.011-.021-.005-.03-.025" fill="#fff"/><path d="m23.477-2.778c.018.072.008.127-.025.19-.054.101-.112.062-.166.128-.05.062-.099.276-.079.362-.168.058-.009.227-.015.35-.002.05-.04.105-.045.161-.01.119.018.266.068.37.097.198.268.413.435.544.19.148.365.572.608.631.178.042.384-.104.543-.143.181-.043.397.01.571-.053.222-.079.127-.337.288-.45.104-.074.287-.01.406-.051.199-.069.339-.263.376-.46.016-.082.01-.145.039-.221.038-.103.111-.16.09-.293-.01-.062-.052-.12-.064-.187-.021-.114.002-.224 0-.337-.002-.2.017-.379-.077-.55-.381-.688-1.236-.929-1.975-.789-.181.034-.287.126-.442.207-.17.088-.139.166-.318.224-.081.026-.216.124-.215.224.002.115.005.051.012.169-.021.011-.021-.005-.03-.025" fill="#fff"/><path d="m15.815-2.778c.019.072.008.127-.025.19-.053.101-.112.062-.165.128-.051.062-.099.276-.079.362-.169.058-.01.227-.015.35-.003.05-.041.105-.046.161-.009.119.018.266.068.37.098.198.269.413.436.544.189.148.364.572.608.631.177.042.384-.104.543-.143.181-.043.398.01.571-.053.222-.079.128-.337.288-.45.104-.074.287-.01.407-.051.199-.069.338-.263.375-.46.017-.082.01-.145.039-.221.039-.103.111-.16.09-.293-.009-.062-.051-.12-.063-.187-.022-.114.001-.224 0-.337-.003-.2.017-.379-.078-.55-.38-.688-1.236-.929-1.975-.789-.18.034-.287.126-.441.207-.171.088-.139.166-.318.224-.082.026-.216.124-.216.224.002.115.005.051.013.169-.021.011-.021-.005-.03-.025" fill="#fff"/><path d="m8.155-2.778c.019.072.008.127-.025.19-.053.101-.112.063-.165.128-.051.062-.1.276-.079.362-.169.058-.01.227-.015.35-.003.05-.041.105-.046.161-.009.119.018.266.068.37.097.198.268.413.435.544.19.148.365.572.608.631.178.042.384-.104.543-.143.181-.043.397.01.572-.053.221-.079.127-.337.288-.45.104-.074.287-.01.405-.051.2-.069.34-.263.377-.46.015-.082.009-.145.038-.221.038-.103.111-.16.091-.293-.011-.062-.053-.12-.065-.187-.021-.114.003-.224.001-.337-.003-.2.017-.379-.078-.55-.38-.688-1.236-.929-1.975-.789-.179.036-.285.128-.442.209-.17.088-.139.166-.317.224-.082.026-.217.123-.216.223.002.115.005.051.012.169-.021.011-.021-.005-.029-.025" fill="#fff"/><path d="m.495-2.778c.018.072.008.127-.026.19-.052.101-.113.063-.165.128-.05.062-.099.276-.078.362-.17.058-.011.227-.016.35-.002.05-.04.105-.045.161-.011.119.018.266.067.37.098.198.269.413.436.544.189.148.364.572.608.631.177.042.384-.104.543-.143.18-.043.397.01.571-.053.222-.079.128-.337.288-.45.104-.074.287-.01.406-.051.2-.07.34-.263.376-.46.016-.082.01-.145.038-.221.039-.103.112-.16.091-.293-.01-.062-.052-.12-.064-.187-.021-.113.002-.222.001-.335-.003-.2.016-.379-.079-.55-.38-.688-1.235-.929-1.975-.789-.178.034-.285.126-.441.207-.17.088-.139.166-.318.224-.081.026-.215.123-.215.223.002.115.005.051.012.169-.021.011-.022-.005-.031-.025" fill="#fff"/></g></g></pattern><g fill="#3f3b3a"><path d="m92.105 105.14-47.32-37.32c-1.115-1.113-1.115-2.92 0-4.033l47.32-37.32c1.115-1.115 2.92-1.115 4.035 0v78.673c-1.115 1.115-2.919 1.115-4.035 0z"/><path d="m42.042 24.799c1.656 0 3 1.344 3 3v75c0 1.658-1.344 3-3 3h-7c-1.658 0-3-1.342-3-3v-75c0-1.656 1.342-3 3-3z"/></g></svg>